solid tello aparat
facet normal 1.0 0.0 0.0
  outer loop
    vertex 59.87867002549234 37.07038672796721 51.781132111864004
    vertex 59.87867002549234 31.86063165135132 53.281132111864004
    vertex 59.87867002549234 31.86063165135132 51.781132111864004
  endloop
endfacet
facet normal 1.0 0.0 0.0
  outer loop
    vertex 59.87867002549234 31.86063165135132 53.281132111864004
    vertex 59.87867002549234 37.07038672796721 51.781132111864004
    vertex 59.87867002549234 37.07038672796721 53.281132111864004
  endloop
endfacet
facet normal -1.0 0.0 0.0
  outer loop
    vertex 65.43756538855385 37.07038672796721 53.281132111864004
    vertex 65.43756538855385 31.86063165135132 51.781132111864004
    vertex 65.43756538855385 31.86063165135132 53.281132111864004
  endloop
endfacet
facet normal -1.0 0.0 0.0
  outer loop
    vertex 65.43756538855385 31.86063165135132 51.781132111864004
    vertex 65.43756538855385 37.07038672796721 53.281132111864004
    vertex 65.43756538855385 37.07038672796721 51.781132111864004
  endloop
endfacet
facet normal -0.0 -1.0 -0.0
  outer loop
    vertex 65.43756538855385 37.07038672796721 53.281132111864004
    vertex 59.87867002549234 37.07038672796721 51.781132111864004
    vertex 65.43756538855385 37.07038672796721 51.781132111864004
  endloop
endfacet
facet normal -0.0 -1.0 -0.0
  outer loop
    vertex 59.87867002549234 37.07038672796721 51.781132111864004
    vertex 65.43756538855385 37.07038672796721 53.281132111864004
    vertex 59.87867002549234 37.07038672796721 53.281132111864004
  endloop
endfacet
facet normal 0.0 1.0 0.0
  outer loop
    vertex 59.87867002549234 31.86063165135132 53.281132111864004
    vertex 65.43756538855385 31.86063165135132 51.781132111864004
    vertex 59.87867002549234 31.86063165135132 51.781132111864004
  endloop
endfacet
facet normal 0.0 1.0 0.0
  outer loop
    vertex 65.43756538855385 31.86063165135132 51.781132111864004
    vertex 59.87867002549234 31.86063165135132 53.281132111864004
    vertex 65.43756538855385 31.86063165135132 53.281132111864004
  endloop
endfacet
facet normal -0.0 -0.0 -1.0
  outer loop
    vertex 40.65811770702308 46.465509189659265 53.281132111864004
    vertex 41.65811770702308 45.465509189659265 53.281132111864004
    vertex 40.65811770702308 22.465509189659265 53.281132111864004
  endloop
endfacet
facet normal -0.0 -0.0 -1.0
  outer loop
    vertex 41.65811770702308 45.465509189659265 53.281132111864004
    vertex 40.65811770702308 46.465509189659265 53.281132111864004
    vertex 84.65811770702308 46.465509189659265 53.281132111864004
  endloop
endfacet
facet normal -0.0 -0.0 -1.0
  outer loop
    vertex 41.65811770702308 45.465509189659265 53.281132111864004
    vertex 84.65811770702308 46.465509189659265 53.281132111864004
    vertex 83.65811770702308 45.465509189659265 53.281132111864004
  endloop
endfacet
facet normal -0.0 -0.0 -1.0
  outer loop
    vertex 83.65811770702308 45.465509189659265 53.281132111864004
    vertex 84.65811770702308 46.465509189659265 53.281132111864004
    vertex 83.65811770702308 23.465509189659265 53.281132111864004
  endloop
endfacet
facet normal -0.0 -0.0 -1.0
  outer loop
    vertex 40.65811770702308 22.465509189659265 53.281132111864004
    vertex 41.65811770702308 23.465509189659265 53.281132111864004
    vertex 84.65811770702308 22.465509189659265 53.281132111864004
  endloop
endfacet
facet normal -0.0 -0.0 -1.0
  outer loop
    vertex 41.65811770702308 23.465509189659265 53.281132111864004
    vertex 40.65811770702308 22.465509189659265 53.281132111864004
    vertex 41.65811770702308 45.465509189659265 53.281132111864004
  endloop
endfacet
facet normal -0.0 -0.0 -1.0
  outer loop
    vertex 84.65811770702308 22.465509189659265 53.281132111864004
    vertex 41.65811770702308 23.465509189659265 53.281132111864004
    vertex 83.65811770702308 23.465509189659265 53.281132111864004
  endloop
endfacet
facet normal -0.0 -0.0 -1.0
  outer loop
    vertex 84.65811770702308 22.465509189659265 53.281132111864004
    vertex 83.65811770702308 23.465509189659265 53.281132111864004
    vertex 84.65811770702308 46.465509189659265 53.281132111864004
  endloop
endfacet
facet normal 0.0 0.0 1.0
  outer loop
    vertex 41.65811770702308 23.465509189659265 53.281132111864004
    vertex 59.87867002549234 31.86063165135132 53.281132111864004
    vertex 41.65811770702308 45.465509189659265 53.281132111864004
  endloop
endfacet
facet normal 0.0 0.0 1.0
  outer loop
    vertex 59.87867002549234 31.86063165135132 53.281132111864004
    vertex 41.65811770702308 23.465509189659265 53.281132111864004
    vertex 83.65811770702308 23.465509189659265 53.281132111864004
  endloop
endfacet
facet normal 0.0 0.0 1.0
  outer loop
    vertex 59.87867002549234 31.86063165135132 53.281132111864004
    vertex 83.65811770702308 23.465509189659265 53.281132111864004
    vertex 65.43756538855385 31.86063165135132 53.281132111864004
  endloop
endfacet
facet normal 0.0 0.0 1.0
  outer loop
    vertex 65.43756538855385 31.86063165135132 53.281132111864004
    vertex 83.65811770702308 23.465509189659265 53.281132111864004
    vertex 65.43756538855385 37.07038672796721 53.281132111864004
  endloop
endfacet
facet normal 0.0 0.0 1.0
  outer loop
    vertex 41.65811770702308 45.465509189659265 53.281132111864004
    vertex 59.87867002549234 37.07038672796721 53.281132111864004
    vertex 83.65811770702308 45.465509189659265 53.281132111864004
  endloop
endfacet
facet normal 0.0 0.0 1.0
  outer loop
    vertex 59.87867002549234 37.07038672796721 53.281132111864004
    vertex 41.65811770702308 45.465509189659265 53.281132111864004
    vertex 59.87867002549234 31.86063165135132 53.281132111864004
  endloop
endfacet
facet normal 0.0 0.0 1.0
  outer loop
    vertex 83.65811770702308 45.465509189659265 53.281132111864004
    vertex 59.87867002549234 37.07038672796721 53.281132111864004
    vertex 65.43756538855385 37.07038672796721 53.281132111864004
  endloop
endfacet
facet normal 0.0 0.0 1.0
  outer loop
    vertex 83.65811770702308 45.465509189659265 53.281132111864004
    vertex 65.43756538855385 37.07038672796721 53.281132111864004
    vertex 83.65811770702308 23.465509189659265 53.281132111864004
  endloop
endfacet
facet normal 0.0 0.0 -1.0
  outer loop
    vertex 40.65811770702308 46.465509189659265 51.78113211186402
    vertex 59.87867002549234 37.07038672796721 51.781132111864004
    vertex 40.65811770702308 22.465509189659265 51.78113211186402
  endloop
endfacet
facet normal 0.0 0.0 -1.0
  outer loop
    vertex 59.87867002549234 37.07038672796721 51.781132111864004
    vertex 40.65811770702308 46.465509189659265 51.78113211186402
    vertex 84.65811770702308 46.465509189659265 51.78113211186402
  endloop
endfacet
facet normal 0.0 0.0 -1.0
  outer loop
    vertex 59.87867002549234 37.07038672796721 51.781132111864004
    vertex 84.65811770702308 46.465509189659265 51.78113211186402
    vertex 65.43756538855385 37.07038672796721 51.781132111864004
  endloop
endfacet
facet normal 0.0 0.0 -1.0
  outer loop
    vertex 65.43756538855385 37.07038672796721 51.781132111864004
    vertex 84.65811770702308 46.465509189659265 51.78113211186402
    vertex 65.43756538855385 31.86063165135132 51.781132111864004
  endloop
endfacet
facet normal 0.0 0.0 -1.0
  outer loop
    vertex 40.65811770702308 22.465509189659265 51.78113211186402
    vertex 59.87867002549234 31.86063165135132 51.781132111864004
    vertex 84.65811770702308 22.465509189659265 51.78113211186402
  endloop
endfacet
facet normal 0.0 0.0 -1.0
  outer loop
    vertex 59.87867002549234 31.86063165135132 51.781132111864004
    vertex 40.65811770702308 22.465509189659265 51.78113211186402
    vertex 59.87867002549234 37.07038672796721 51.781132111864004
  endloop
endfacet
facet normal 0.0 0.0 -1.0
  outer loop
    vertex 84.65811770702308 22.465509189659265 51.78113211186402
    vertex 59.87867002549234 31.86063165135132 51.781132111864004
    vertex 65.43756538855385 31.86063165135132 51.781132111864004
  endloop
endfacet
facet normal 0.0 0.0 -1.0
  outer loop
    vertex 84.65811770702308 22.465509189659265 51.78113211186402
    vertex 65.43756538855385 31.86063165135132 51.781132111864004
    vertex 84.65811770702308 46.465509189659265 51.78113211186402
  endloop
endfacet
facet normal 0.0 1.0 0.0
  outer loop
    vertex 40.65811770702308 46.465509189659265 53.281132111864004
    vertex 84.65811770702308 46.465509189659265 51.78113211186402
    vertex 40.65811770702308 46.465509189659265 51.78113211186402
  endloop
endfacet
facet normal 0.0 1.0 0.0
  outer loop
    vertex 84.65811770702308 46.465509189659265 51.78113211186402
    vertex 40.65811770702308 46.465509189659265 53.281132111864004
    vertex 84.65811770702308 46.465509189659265 53.281132111864004
  endloop
endfacet
facet normal -1.0 -0.0 -0.0
  outer loop
    vertex 40.65811770702308 46.465509189659265 53.281132111864004
    vertex 40.65811770702308 22.465509189659265 51.78113211186402
    vertex 40.65811770702308 22.465509189659265 53.281132111864004
  endloop
endfacet
facet normal -1.0 -0.0 -0.0
  outer loop
    vertex 40.65811770702308 22.465509189659265 51.78113211186402
    vertex 40.65811770702308 46.465509189659265 53.281132111864004
    vertex 40.65811770702308 46.465509189659265 51.78113211186402
  endloop
endfacet
facet normal 0.0 -1.0 0.0
  outer loop
    vertex 84.65811770702308 22.465509189659265 53.281132111864004
    vertex 40.65811770702308 22.465509189659265 51.78113211186402
    vertex 84.65811770702308 22.465509189659265 51.78113211186402
  endloop
endfacet
facet normal 0.0 -1.0 0.0
  outer loop
    vertex 40.65811770702308 22.465509189659265 51.78113211186402
    vertex 84.65811770702308 22.465509189659265 53.281132111864004
    vertex 40.65811770702308 22.465509189659265 53.281132111864004
  endloop
endfacet
facet normal 1.0 0.0 0.0
  outer loop
    vertex 84.65811770702308 46.465509189659265 51.78113211186402
    vertex 84.65811770702308 22.465509189659265 53.281132111864004
    vertex 84.65811770702308 22.465509189659265 51.78113211186402
  endloop
endfacet
facet normal 1.0 0.0 0.0
  outer loop
    vertex 84.65811770702308 22.465509189659265 53.281132111864004
    vertex 84.65811770702308 46.465509189659265 51.78113211186402
    vertex 84.65811770702308 46.465509189659265 53.281132111864004
  endloop
endfacet
facet normal 0.0 0.0 1.0
  outer loop
    vertex 40.65811770702308 22.465509189659265 63.281132111864004
    vertex 41.65811770702308 23.465509189659265 63.281132111864004
    vertex 40.65811770702308 46.465509189659265 63.281132111864004
  endloop
endfacet
facet normal 0.0 0.0 1.0
  outer loop
    vertex 41.65811770702308 23.465509189659265 63.281132111864004
    vertex 40.65811770702308 22.465509189659265 63.281132111864004
    vertex 84.65811770702308 22.465509189659265 63.281132111864004
  endloop
endfacet
facet normal 0.0 0.0 1.0
  outer loop
    vertex 41.65811770702308 23.465509189659265 63.281132111864004
    vertex 84.65811770702308 22.465509189659265 63.281132111864004
    vertex 83.65811770702308 23.465509189659265 63.281132111864004
  endloop
endfacet
facet normal 0.0 0.0 1.0
  outer loop
    vertex 83.65811770702308 23.465509189659265 63.281132111864004
    vertex 84.65811770702308 22.465509189659265 63.281132111864004
    vertex 83.65811770702308 45.465509189659265 63.281132111864004
  endloop
endfacet
facet normal 0.0 0.0 1.0
  outer loop
    vertex 40.65811770702308 46.465509189659265 63.281132111864004
    vertex 41.65811770702308 45.465509189659265 63.281132111864004
    vertex 84.65811770702308 46.465509189659265 63.281132111864004
  endloop
endfacet
facet normal 0.0 0.0 1.0
  outer loop
    vertex 41.65811770702308 45.465509189659265 63.281132111864004
    vertex 40.65811770702308 46.465509189659265 63.281132111864004
    vertex 41.65811770702308 23.465509189659265 63.281132111864004
  endloop
endfacet
facet normal 0.0 0.0 1.0
  outer loop
    vertex 84.65811770702308 46.465509189659265 63.281132111864004
    vertex 41.65811770702308 45.465509189659265 63.281132111864004
    vertex 83.65811770702308 45.465509189659265 63.281132111864004
  endloop
endfacet
facet normal 0.0 0.0 1.0
  outer loop
    vertex 84.65811770702308 46.465509189659265 63.281132111864004
    vertex 83.65811770702308 45.465509189659265 63.281132111864004
    vertex 84.65811770702308 22.465509189659265 63.281132111864004
  endloop
endfacet
facet normal 0.0 1.0 0.0
  outer loop
    vertex 40.65811770702308 46.465509189659265 63.281132111864004
    vertex 84.65811770702308 46.465509189659265 53.281132111864004
    vertex 40.65811770702308 46.465509189659265 53.281132111864004
  endloop
endfacet
facet normal 0.0 1.0 0.0
  outer loop
    vertex 84.65811770702308 46.465509189659265 53.281132111864004
    vertex 40.65811770702308 46.465509189659265 63.281132111864004
    vertex 84.65811770702308 46.465509189659265 63.281132111864004
  endloop
endfacet
facet normal 1.0 0.0 0.0
  outer loop
    vertex 84.65811770702308 46.465509189659265 53.281132111864004
    vertex 84.65811770702308 22.465509189659265 63.281132111864004
    vertex 84.65811770702308 22.465509189659265 53.281132111864004
  endloop
endfacet
facet normal 1.0 0.0 0.0
  outer loop
    vertex 84.65811770702308 22.465509189659265 63.281132111864004
    vertex 84.65811770702308 46.465509189659265 53.281132111864004
    vertex 84.65811770702308 46.465509189659265 63.281132111864004
  endloop
endfacet
facet normal -0.0 -1.0 -0.0
  outer loop
    vertex 84.65811770702308 22.465509189659265 63.281132111864004
    vertex 40.65811770702308 22.465509189659265 53.281132111864004
    vertex 84.65811770702308 22.465509189659265 53.281132111864004
  endloop
endfacet
facet normal -0.0 -1.0 -0.0
  outer loop
    vertex 40.65811770702308 22.465509189659265 53.281132111864004
    vertex 84.65811770702308 22.465509189659265 63.281132111864004
    vertex 40.65811770702308 22.465509189659265 63.281132111864004
  endloop
endfacet
facet normal -1.0 0.0 0.0
  outer loop
    vertex 40.65811770702308 46.465509189659265 63.281132111864004
    vertex 40.65811770702308 22.465509189659265 53.281132111864004
    vertex 40.65811770702308 22.465509189659265 63.281132111864004
  endloop
endfacet
facet normal -1.0 0.0 0.0
  outer loop
    vertex 40.65811770702308 22.465509189659265 53.281132111864004
    vertex 40.65811770702308 46.465509189659265 63.281132111864004
    vertex 40.65811770702308 46.465509189659265 53.281132111864004
  endloop
endfacet
facet normal -1.0 0.0 0.0
  outer loop
    vertex 83.65811770702308 45.465509189659265 63.281132111864004
    vertex 83.65811770702308 23.465509189659265 53.281132111864004
    vertex 83.65811770702308 23.465509189659265 63.281132111864004
  endloop
endfacet
facet normal -1.0 0.0 0.0
  outer loop
    vertex 83.65811770702308 23.465509189659265 53.281132111864004
    vertex 83.65811770702308 45.465509189659265 63.281132111864004
    vertex 83.65811770702308 45.465509189659265 53.281132111864004
  endloop
endfacet
facet normal -0.0 -1.0 -0.0
  outer loop
    vertex 83.65811770702308 45.465509189659265 63.281132111864004
    vertex 41.65811770702308 45.465509189659265 53.281132111864004
    vertex 83.65811770702308 45.465509189659265 53.281132111864004
  endloop
endfacet
facet normal -0.0 -1.0 -0.0
  outer loop
    vertex 41.65811770702308 45.465509189659265 53.281132111864004
    vertex 83.65811770702308 45.465509189659265 63.281132111864004
    vertex 41.65811770702308 45.465509189659265 63.281132111864004
  endloop
endfacet
facet normal 1.0 0.0 0.0
  outer loop
    vertex 41.65811770702308 45.465509189659265 53.281132111864004
    vertex 41.65811770702308 23.465509189659265 63.281132111864004
    vertex 41.65811770702308 23.465509189659265 53.281132111864004
  endloop
endfacet
facet normal 1.0 0.0 0.0
  outer loop
    vertex 41.65811770702308 23.465509189659265 63.281132111864004
    vertex 41.65811770702308 45.465509189659265 53.281132111864004
    vertex 41.65811770702308 45.465509189659265 63.281132111864004
  endloop
endfacet
facet normal 0.0 1.0 0.0
  outer loop
    vertex 41.65811770702308 23.465509189659265 63.281132111864004
    vertex 83.65811770702308 23.465509189659265 53.281132111864004
    vertex 41.65811770702308 23.465509189659265 53.281132111864004
  endloop
endfacet
facet normal 0.0 1.0 0.0
  outer loop
    vertex 83.65811770702308 23.465509189659265 53.281132111864004
    vertex 41.65811770702308 23.465509189659265 63.281132111864004
    vertex 83.65811770702308 23.465509189659265 63.281132111864004
  endloop
endfacet
endsolid tello aparat
